<svg width="37" height="10" viewBox="0 0 37 10" fill="none" xmlns="http://www.w3.org/2000/svg">
<path d="M7.62939e-06 0.00162734H3.43695C3.7494 0.00162734 4.68674 -0.102522 5.10334 1.35557C5.41579 2.29292 5.83239 3.75102 6.45729 5.93816H6.66559C7.29049 3.64687 7.81124 2.08462 8.01954 1.35557C8.43613 -0.102522 9.47763 0.00162734 9.89423 0.00162734H13.1229V10H9.79008V4.06347H9.58178L7.81124 10H5.31164L3.5411 4.06347H3.22865V10H7.62939e-06M14.4768 0.00162734H17.8096V5.93816H18.1221L20.3092 1.04312C20.7258 0.105777 21.6631 0.00162734 21.6631 0.00162734H24.7876V10H21.4548V4.06347H21.2465L19.0594 8.9585C18.6428 9.89585 17.6013 10 17.6013 10H14.4768M29.2661 6.97966V10H26.1416V4.79251H36.3483C35.9317 6.04231 34.4736 6.97966 32.8072 6.97966" fill="#0F754E"/>
<path d="M36.5566 4.16761C36.9732 2.29291 35.7234 0.00161743 33.0155 0.00161743H25.9333C26.1416 2.18876 28.0163 4.16761 29.9951 4.16761" fill="url(#paint0_linear_119_45281)"/>
<defs>
<linearGradient id="paint0_linear_119_45281" x1="35.3068" y1="-1.35233" x2="26.9748" y2="-1.35233" gradientUnits="userSpaceOnUse">
<stop stop-color="#1F5CD7"/>
<stop offset="1" stop-color="#02AEFF"/>
</linearGradient>
</defs>
</svg>
